<svg xmlns="http://www.w3.org/2000/svg" viewBox="0 0 512 512">
    <path style="fill:#f0f0f0" d="M0 85.333h512v341.337H0z" />
    <path style="fill:#d80027"
        d="M288 85.33H224V223.996H0V287.996H224V426.662h64V287.996H512V223.996H288z" />
    <g>
        <path style="fill:#0052b4" d="M393.785 315.358 512 381.034V315.358z" />
        <path style="fill:#0052b4" d="M311.652 315.358 512 426.662V395.188L368.307 315.358z" />
        <path style="fill:#0052b4" d="M458.634 426.662 311.652 344.998V426.662z" />
    </g>
    <path style="fill:#f0f0f0" d="M311.652 315.358 512 426.662V395.188L368.307 315.358z" />
    <path style="fill:#d80027" d="M311.652 315.358 512 426.662V395.188L368.307 315.358z" />
    <g>
        <path style="fill:#0052b4" d="M90.341 315.356.0 365.546v-50.19z" />
        <path style="fill:#0052b4" d="M200.348 329.51V426.661H25.491z" />
    </g>
    <path style="fill:#d80027" d="M143.693 315.358.0 395.188V426.662v0L200.348 315.358z" />
    <g>
        <path style="fill:#0052b4" d="M118.215 196.634.0 130.958V196.634z" />
        <path style="fill:#0052b4" d="M200.348 196.634.0 85.33V116.804L143.693 196.634z" />
        <path style="fill:#0052b4" d="M53.366 85.33 200.348 166.994V85.33z" />
    </g>
    <path style="fill:#f0f0f0" d="M200.348 196.634.0 85.33V116.804L143.693 196.634z" />
    <path style="fill:#d80027" d="M200.348 196.634.0 85.33V116.804L143.693 196.634z" />
    <g>
        <path style="fill:#0052b4" d="M421.659 196.636 512 146.446v50.19z" />
        <path style="fill:#0052b4" d="M311.652 182.482V85.331H486.509z" />
    </g>
    <path style="fill:#d80027" d="M368.307 196.634 512 116.804V85.33v0L311.652 196.634z" />
</svg>